<?xml version="1.0" encoding="UTF-8"?>
<svg id="Calque_2" data-name="Calque 2" xmlns="http://www.w3.org/2000/svg" viewBox="0 0 2181.42 2181.42">
  <defs>
    <style>
      .cls-1 {
        fill: #ebbb00;
      }

      .cls-2 {
        fill: #21341c;
      }

      .cls-3 {
        fill: #fff;
      }

      .cls-4 {
        fill: #f8e1a4;
      }
    </style>
  </defs>
  <g id="texte">
    <circle class="cls-3" cx="1090.71" cy="1090.71" r="1090.71"/>
    <path class="cls-1" d="M1674.1,918.53c-54.25-42.9-111.45-81.55-170.15-118.04-103.58-64.38-211.51-120.18-325.14-164.75-80.29-31.49-162.46-56.66-247.14-73.24-46.83-9.17-94.06-15.41-141.74-18.38-44.18-2.76-88.32-2.79-132.37.88-150.24,12.5-286.01,63.24-406.06,154.99-25.78,19.7-50.32,40.84-73.75,63.28-2.48,2.37-4.4,5.51-8.11,6.68-.66-3.9,1.51-6.96,2.69-10.2C278.19,467.19,515.62,243.13,813.94,154.44c53.98-16.05,109.04-26.84,165.01-33.43,51.09-6.01,102.34-7.64,153.6-5.47,128.77,5.44,251.92,34.97,368.84,89.45,250.62,116.77,440.03,333.16,521.52,595.42,18.95,60.99,31.72,123.24,38.43,186.78,6,56.82,7.6,113.72,3.33,170.66-16.14,215.28-93.55,405.73-234.32,569.54-121.04,140.86-270.88,238.96-448.01,295.08-58.81,18.63-119,30.87-180.31,38.04-51.1,5.98-102.34,7.46-153.6,5.4-82.49-3.31-163.36-17.05-242.37-41.28-1.35-.42-2.74-.72-4.11-1.08,3.98-3.75,9.35-3,13.99-3.57,43.15-5.27,85.56-14.06,127.22-26.33,49.74-14.65,97.29-34.37,140.62-63.27,53.3-35.54,97.76-80.44,136.69-130.97,52.9-68.66,93.47-144.56,129.5-223.02,34.61-75.37,64.55-152.7,95.31-229.67,24.17-60.49,48.9-120.73,79.12-178.54,19.84-37.96,42.1-74.29,70.85-106.38,21.93-24.48,47.05-44.49,77.58-57.06,23.67-9.74,48.32-13.67,74.03-11.91,9.93.68,19.84,2.9,31.81,2.55-17.91-14.96-35.19-27.4-52.45-39.84-17.3-12.46-34.75-24.69-52.14-37.03Z"/>
    <path class="cls-4" d="M1675.32,922.15c17.34,12.3,34.74,24.5,51.99,36.92,17.22,12.4,34.44,24.81,52.3,39.73-11.94.35-21.81-1.86-31.72-2.54-25.64-1.76-50.21,2.16-73.82,11.87-30.44,12.53-55.49,32.49-77.36,56.9-28.67,32-50.86,68.22-70.65,106.08-30.13,57.64-54.79,117.72-78.89,178.04-30.67,76.76-60.53,153.87-95.04,229.02-35.92,78.24-76.37,153.93-129.12,222.39-38.81,50.38-83.14,95.15-136.29,130.6-43.2,28.81-90.62,48.48-140.21,63.09-41.54,12.24-83.82,21-126.85,26.26-4.62.56-9.97-.18-13.95,3.56-57.02-18.23-112.43-40.28-165.49-69.01,2.99-2.5,5.7-3.06,8.59-3.12,11.33-.23,22.59-.87,33.9-1.94,15.13-1.44,30.28-2.94,45.28-5.1,31.82-4.58,63.41-10.55,94.53-18.76,56.17-14.82,109.9-35.59,158.98-67.03,22.97-14.72,44.28-31.79,64.32-50.42,11.94-11.1,23.55-22.41,34.66-34.39,20.29-21.87,38.81-45.07,56.33-69.16,42.74-58.77,76.61-122.65,107.46-188.15,28.08-59.62,52.75-120.74,77.04-182,19.59-49.39,39.05-98.82,60.2-147.57,11.29-26.02,22.84-51.92,35.64-77.23,20.2-39.94,42.51-78.68,71.7-112.78,29.32-34.26,63.67-61.6,109.12-71.75,22.43-5.01,44.96-4.46,67.58-1.85,3.39.39,7.03,2.09,9.73-1.64Z"/>
    <circle class="cls-2" cx="1261.93" cy="871.49" r="50.35"/>
  </g>
</svg>
