<?xml version="1.0" encoding="UTF-8"?>
<svg id="Calque_2" data-name="Calque 2" xmlns="http://www.w3.org/2000/svg" viewBox="0 0 942.63 942.63">
  <defs>
    <style>
      .cls-1 {
        fill: none;
      }

      .cls-2 {
        fill: #2c8b57;
      }
    </style>
  </defs>
  <g id="Calque_1-2" data-name="Calque 1">
    <path class="cls-2" d="M654.29,37.1C414.48-63.95,138.15,48.54,37.1,288.35c-101.05,239.82,11.44,516.14,251.26,617.19,239.81,101.05,516.13-11.44,617.18-251.25,101.05-239.81-11.44-516.14-251.25-617.19ZM738.41,639.17c-30.86,49.96-79.43,91.88-145.69,125.74l-52.59-119.43c42.2-22.2,71.92-47.64,89.19-76.35,18.38-29.84,27.45-62.21,27.22-97.11-.33-51.25-18.64-94.77-54.89-130.55-36.64-36.16-80.39-54.07-131.26-53.74-51.25.34-94.96,18.81-131.11,55.45-35.79,36.26-53.52,80.02-53.18,131.26.23,34.54,9.91,66.79,29.04,96.75,17.27,28.48,47.33,53.53,90.19,75.17l-51.03,120.11c-67.06-32.99-116.36-74.27-147.88-123.82-33.01-50.67-49.72-106.45-50.11-167.36-.57-86.53,29.77-161,91.01-223.42,61.24-62.06,135.32-93.37,222.22-93.93,86.52-.57,160.81,29.77,222.87,91.01,62.05,61.62,93.36,135.68,93.93,222.22.4,60.9-15.58,116.9-47.93,168Z"/>
    <path class="cls-1" d="M786.34,471.17c.4,60.9-15.58,116.9-47.93,168-30.86,49.96-79.43,91.88-145.69,125.74l-52.59-119.43c42.2-22.2,71.92-47.64,89.19-76.35,18.38-29.84,27.45-62.21,27.22-97.11-.33-51.25-18.64-94.77-54.89-130.55-36.64-36.16-80.39-54.07-131.26-53.74-51.25.34-94.96,18.81-131.11,55.45-35.79,36.26-53.52,80.02-53.18,131.26.23,34.54,9.91,66.79,29.04,96.75,17.27,28.48,47.33,53.53,90.19,75.17l-51.03,120.11c-67.06-32.99-116.36-74.27-147.88-123.82-33.01-50.67-49.72-106.45-50.11-167.36-.57-86.53,29.77-161,91.01-223.42,61.24-62.06,135.32-93.37,222.22-93.93,86.52-.57,160.81,29.77,222.87,91.01,62.05,61.62,93.36,135.68,93.93,222.22Z"/>
  </g>
</svg>
